# Blender 4.5.1 LTS
# www.blender.org
mtllib RUCHKA29.mtl
o Cube
v -0.005250 -0.014000 0.072500
v -0.002798 0.011016 0.070960
v 0.005250 -0.014000 0.055620
v -0.002798 0.011016 0.046783
v 0.005250 -0.014000 0.072500
v 0.002798 0.011016 0.070960
v 0.002798 0.011016 0.046783
v -0.005250 -0.014000 0.055620
v -0.002798 0.011016 0.000000
v 0.002798 0.011016 0.000000
v -0.004562 0.005026 0.072500
v 0.004562 0.005026 0.072500
v 0.004562 0.005026 0.000000
v -0.004562 0.005026 0.000000
v -0.004562 0.005026 0.046783
v -0.005250 -0.003812 0.055620
v -0.004562 0.005026 0.055620
v 0.000000 -0.014000 0.072500
v -0.004873 0.001785 0.052379
v 0.005250 -0.003812 0.055620
v 0.004562 0.005026 0.046783
v 0.000000 -0.014000 0.055620
v 0.004562 0.005026 0.055620
v 0.004873 0.001785 0.052379
v 0.000000 0.005026 0.000000
v 0.000000 0.005026 0.072500
v 0.000000 0.005026 0.046783
v 0.000000 0.001785 0.052379
v 0.000000 -0.003812 0.055620
v -0.000000 0.011065 0.071006
v 0.005250 -0.003812 0.072500
v -0.005250 -0.003812 0.072500
v 0.000000 -0.003812 0.072500
v 0.001398 0.013317 0.070246
v -0.001398 0.013317 0.070246
v 0.000000 0.013317 0.070246
v 0.000000 0.014123 0.069678
v -0.001398 0.013317 0.046783
v 0.001398 0.013317 0.046783
v 0.000000 0.014123 0.046783
v -0.001398 0.013317 0.000000
v 0.001398 0.013317 0.000000
v 0.000000 0.014123 0.000000
v 0.002798 0.011016 0.011696
v 0.002798 0.011016 0.023391
v 0.002798 0.011016 0.035087
v -0.002798 0.011016 0.035087
v -0.002798 0.011016 0.023391
v -0.002798 0.011016 0.011696
v -0.004562 0.005026 0.011696
v -0.004562 0.005026 0.023391
v -0.004562 0.005026 0.035087
v 0.004562 0.005026 0.011696
v 0.004562 0.005026 0.023391
v 0.004562 0.005026 0.035087
v 0.000000 0.005026 0.011696
v 0.000000 0.005026 0.023391
v 0.000000 0.005026 0.035087
v -0.001398 0.013317 0.011696
v -0.001398 0.013317 0.023391
v -0.001398 0.013317 0.035087
v 0.000000 0.014123 0.035087
v 0.000000 0.014123 0.023391
v 0.000000 0.014123 0.011696
v 0.001398 0.013317 0.035087
v 0.001398 0.013317 0.023391
v 0.001398 0.013317 0.011696
v -0.005250 -0.014000 0.064000
v 0.005250 -0.014000 0.064000
v -0.002798 0.011016 0.064000
v 0.002798 0.011016 0.064000
v -0.004562 0.005026 0.064000
v 0.004562 0.005026 0.064000
v -0.005250 -0.003812 0.064000
v 0.005250 -0.003812 0.064000
v -0.001398 0.013317 0.064000
v 0.000000 0.014123 0.064000
v 0.001398 0.013317 0.064000
v -0.000000 -0.014000 0.065725
v -0.001725 -0.014000 0.064000
v 0.000000 -0.014000 0.062275
v 0.001725 -0.014000 0.064000
v -0.001220 -0.014000 0.065220
v -0.001220 -0.014000 0.062780
v 0.001220 -0.014000 0.062780
v 0.001220 -0.014000 0.065220
v 0.001220 -0.005237 0.065220
v -0.000000 -0.005237 0.065725
v -0.001220 -0.005237 0.065220
v 0.000000 -0.004270 0.064000
v -0.001725 -0.005237 0.064000
v -0.001220 -0.005237 0.062780
v 0.000000 -0.005237 0.062275
v 0.001220 -0.005237 0.062780
v 0.001725 -0.005237 0.064000
v -0.005250 -0.014000 -0.072500
v -0.002798 0.011016 -0.070960
v 0.005250 -0.014000 -0.055620
v -0.002798 0.011016 -0.046783
v 0.005250 -0.014000 -0.072500
v 0.002798 0.011016 -0.070960
v 0.002798 0.011016 -0.046783
v -0.005250 -0.014000 -0.055620
v -0.004562 0.005026 -0.072500
v 0.004562 0.005026 -0.072500
v -0.004562 0.005026 -0.046783
v -0.005250 -0.003812 -0.055620
v -0.004562 0.005026 -0.055620
v 0.000000 -0.014000 -0.072500
v -0.004873 0.001785 -0.052379
v 0.005250 -0.003812 -0.055620
v 0.004562 0.005026 -0.046783
v 0.000000 -0.014000 -0.055620
v 0.004562 0.005026 -0.055620
v 0.004873 0.001785 -0.052379
v 0.000000 0.005026 -0.072500
v 0.000000 0.005026 -0.046783
v 0.000000 0.001785 -0.052379
v 0.000000 -0.003812 -0.055620
v -0.000000 0.011065 -0.071006
v 0.005250 -0.003812 -0.072500
v -0.005250 -0.003812 -0.072500
v 0.000000 -0.003812 -0.072500
v 0.001398 0.013317 -0.070246
v -0.001398 0.013317 -0.070246
v 0.000000 0.013317 -0.070246
v 0.000000 0.014123 -0.069678
v -0.001398 0.013317 -0.046783
v 0.001398 0.013317 -0.046783
v 0.000000 0.014123 -0.046783
v 0.002798 0.011016 -0.011696
v 0.002798 0.011016 -0.023391
v 0.002798 0.011016 -0.035087
v -0.002798 0.011016 -0.035087
v -0.002798 0.011016 -0.023391
v -0.002798 0.011016 -0.011696
v -0.004562 0.005026 -0.011696
v -0.004562 0.005026 -0.023391
v -0.004562 0.005026 -0.035087
v 0.004562 0.005026 -0.011696
v 0.004562 0.005026 -0.023391
v 0.004562 0.005026 -0.035087
v 0.000000 0.005026 -0.011696
v 0.000000 0.005026 -0.023391
v 0.000000 0.005026 -0.035087
v -0.001398 0.013317 -0.011696
v -0.001398 0.013317 -0.023391
v -0.001398 0.013317 -0.035087
v 0.000000 0.014123 -0.035087
v 0.000000 0.014123 -0.023391
v 0.000000 0.014123 -0.011696
v 0.001398 0.013317 -0.035087
v 0.001398 0.013317 -0.023391
v 0.001398 0.013317 -0.011696
v -0.005250 -0.014000 -0.064000
v 0.005250 -0.014000 -0.064000
v -0.002798 0.011016 -0.064000
v 0.002798 0.011016 -0.064000
v -0.004562 0.005026 -0.064000
v 0.004562 0.005026 -0.064000
v -0.005250 -0.003812 -0.064000
v 0.005250 -0.003812 -0.064000
v -0.001398 0.013317 -0.064000
v 0.000000 0.014123 -0.064000
v 0.001398 0.013317 -0.064000
v -0.000000 -0.014000 -0.065725
v -0.001725 -0.014000 -0.064000
v 0.000000 -0.014000 -0.062275
v 0.001725 -0.014000 -0.064000
v -0.001220 -0.014000 -0.065220
v -0.001220 -0.014000 -0.062780
v 0.001220 -0.014000 -0.062780
v 0.001220 -0.014000 -0.065220
v 0.001220 -0.005237 -0.065220
v -0.000000 -0.005237 -0.065725
v -0.001220 -0.005237 -0.065220
v 0.000000 -0.004270 -0.064000
v -0.001725 -0.005237 -0.064000
v -0.001220 -0.005237 -0.062780
v 0.000000 -0.005237 -0.062275
v 0.001220 -0.005237 -0.062780
v 0.001725 -0.005237 -0.064000
vn -0.0000 -0.0000 1.0000
vn -0.0000 0.1238 0.9923
vn -0.0034 0.1088 0.9941
vn -0.9962 0.0865 0.0090
vn -0.9990 0.0444 0.0026
vn -0.9831 0.1832 0.0022
vn 0.9831 0.1832 0.0022
vn 0.9666 0.2562 -0.0000
vn 0.9145 0.4045 -0.0000
vn -0.0000 -0.8654 -0.5011
vn -0.0000 -0.7007 -0.7134
vn -0.0000 -0.7071 -0.7071
vn -0.0000 -0.5011 -0.8654
vn -0.9992 0.0388 -0.0000
vn -0.9835 0.1810 -0.0000
vn -0.0000 -0.0000 -1.0000
vn -0.9593 0.2825 -0.0000
vn -0.9145 0.4045 -0.0000
vn -0.0000 -1.0000 -0.0000
vn 0.9992 0.0388 -0.0000
vn 0.9835 0.1810 -0.0000
vn 0.9850 0.1724 -0.0000
vn 0.9593 0.2825 -0.0000
vn 0.9228 0.3852 -0.0000
vn 0.0034 0.1088 0.9941
vn -0.9666 0.2562 -0.0000
vn 0.9962 0.0865 0.0090
vn 0.0099 0.2693 0.9630
vn -0.0000 0.2791 0.9603
vn -0.0099 0.2693 0.9630
vn -1.0000 -0.0000 -0.0000
vn 1.0000 -0.0000 -0.0000
vn 0.9990 0.0444 0.0026
vn 0.0109 0.3744 0.9272
vn -0.0000 0.5762 0.8173
vn -0.0000 0.4489 0.8936
vn -0.0109 0.3744 0.9272
vn -0.6987 0.7154 -0.0000
vn -0.4993 0.8665 -0.0000
vn 0.4993 0.8665 -0.0000
vn 0.6987 0.7154 -0.0000
vn -0.7335 0.6797 -0.0000
vn 0.7335 0.6797 -0.0000
vn -0.9228 0.3852 -0.0000
vn -0.9850 0.1724 -0.0000
vn -0.9239 -0.0000 -0.3827
vn 0.9239 -0.0000 -0.3827
vn -0.3827 -0.0000 0.9239
vn -0.9239 -0.0000 0.3827
vn -0.0000 -0.8723 -0.4890
vn 0.3458 -0.8723 -0.3458
vn 0.4890 -0.8723 -0.0000
vn 0.3458 -0.8723 0.3458
vn -0.0000 -0.8723 0.4890
vn -0.3458 -0.8723 0.3458
vn -0.4890 -0.8723 -0.0000
vn -0.3458 -0.8723 -0.3458
vn -0.3827 -0.0000 -0.9239
vn 0.3827 -0.0000 0.9239
vn 0.9239 -0.0000 0.3827
vn 0.3827 -0.0000 -0.9239
vn -0.0034 0.1088 -0.9941
vn -0.0000 0.1238 -0.9923
vn -0.9962 0.0865 -0.0090
vn -0.9831 0.1832 -0.0022
vn -0.9990 0.0444 -0.0026
vn 0.9831 0.1832 -0.0022
vn -0.0000 -0.8654 0.5011
vn -0.0000 -0.7071 0.7071
vn -0.0000 -0.7007 0.7134
vn -0.0000 -0.5011 0.8654
vn 0.0034 0.1088 -0.9941
vn 0.9962 0.0865 -0.0090
vn -0.0000 0.2791 -0.9603
vn 0.0099 0.2693 -0.9630
vn -0.0099 0.2693 -0.9630
vn 0.9990 0.0444 -0.0026
vn 0.0109 0.3744 -0.9272
vn -0.0000 0.4489 -0.8936
vn -0.0000 0.5762 -0.8173
vn -0.0109 0.3744 -0.9272
vt 0.465964 0.875000
vt 0.544872 0.875000
vt 0.544872 1.000000
vt 0.465964 1.000000
vt 0.507842 0.090115
vt 0.404183 0.200062
vt 0.544872 0.018069
vt 0.544872 0.736134
vt 0.544872 0.707567
vt 0.623780 0.720897
vt 0.544872 0.375000
vt 0.529890 0.720897
vt 0.518866 0.405506
vt 0.465964 0.720897
vt 0.435073 0.460480
vt 0.435073 0.100031
vt 0.544872 0.009034
vt 0.250000 0.720897
vt 0.375000 0.720897
vt 0.544872 0.104358
vt 0.625000 0.101026
vt 0.625000 0.125000
vt 0.544872 0.125000
vt 0.544872 0.375000
vt 0.544872 0.625000
vt 0.544872 0.645642
vt 0.616249 0.014552
vt 0.607497 0.029103
vt 0.465964 0.735448
vt 0.544872 0.743067
vt 0.544872 0.750000
vt 0.465964 0.750000
vt 0.544872 0.686925
vt 0.624085 0.696923
vt 0.625000 0.735448
vt 0.625000 0.750000
vt 0.125000 0.720897
vt 0.544872 0.042434
vt 0.598796 0.875000
vt 0.625000 1.000000
vt 0.375000 0.750000
vt 0.375000 0.875000
vt 0.375000 1.000000
vt 0.375000 0.014552
vt 0.375000 0.029103
vt 0.375000 0.735448
vt 0.693502 0.750000
vt 0.771014 0.750000
vt 0.789665 0.750000
vt 0.806907 0.750000
vt 0.806907 0.696923
vt 0.806907 0.720897
vt 0.750000 0.720897
vt 0.750000 0.696923
vt 0.693093 0.720897
vt 0.693093 0.696923
vt 0.806907 0.735448
vt 0.750000 0.750000
vt 0.750000 0.735448
vt 0.693298 0.735448
vt 0.875000 0.735448
vt 0.875000 0.750000
vt 0.625000 0.818093
vt 0.608293 0.875000
vt 0.625000 0.931907
vt 0.625000 0.696923
vt 0.625000 0.720897
vt 0.875000 0.696923
vt 0.875000 0.720897
vt 0.806907 0.625000
vt 0.875000 0.625000
vt 0.875000 0.648974
vt 0.806907 0.648974
vt 0.875000 0.672948
vt 0.806907 0.672948
vt 0.625000 0.625000
vt 0.693093 0.625000
vt 0.693093 0.648974
vt 0.625000 0.648974
vt 0.693093 0.672948
vt 0.625000 0.672948
vt 0.750000 0.625000
vt 0.750000 0.648974
vt 0.750000 0.672948
vt 0.544872 0.063075
vt 0.544872 0.375000
vt 0.544872 0.083717
vt 0.624695 0.648974
vt 0.624390 0.672948
vt 0.544872 0.666283
vt 0.625000 0.029103
vt 0.625000 0.053077
vt 0.625000 0.077052
vt 0.375000 0.000000
vt 0.465964 0.000000
vt 0.544872 0.000000
vt 0.625000 0.000000
vt 0.302697 0.735448
vt 0.269325 0.736838
vt 0.230675 0.736838
vt 0.197303 0.735448
vt 0.250000 0.731605
vt 0.269325 0.734039
vt 0.125000 0.750000
vt 0.250000 0.739237
vt 0.250000 0.750000
vt 0.230675 0.734039
vt 0.125000 0.735448
vt 0.250000 0.735449
s 1
f 33/1/1 26/2/2 11/3/3 32/4/1
f 19/5/4 16/6/5 17/7/6
f 23/8/7 21/9/8 7/10/9
f 27/11/10 21/9/10 24/12/11 28/13/12
f 28/13/12 24/12/11 20/14/13 29/15/13
f 74/16/14 72/17/15 17/7/6 16/6/5
f 22/18/16 29/15/16 20/14/16 3/19/16
f 50/20/17 49/21/18 9/22/18 14/23/17
f 56/24/19 25/24/19 13/25/19 53/26/19
f 72/17/15 70/27/18 4/28/18 17/7/6
f 75/29/20 73/30/21 12/31/22 31/32/20
f 55/33/23 46/34/9 7/10/9 21/9/8
f 73/30/21 71/35/9 6/36/24 12/31/22
f 50/20/19 14/23/19 25/24/19 56/24/19
f 8/37/16 16/6/16 29/15/16 22/18/16
f 19/5/11 28/13/12 29/15/13 16/6/13
f 15/38/10 27/11/10 28/13/12 19/5/11
f 31/32/1 12/31/25 26/2/2 33/1/1
f 4/28/18 15/38/26 17/7/6
f 24/12/27 21/9/8 23/8/7
f 12/31/25 6/36/28 30/39/29 26/2/2
f 26/2/2 30/39/29 2/40/30 11/3/3
f 5/41/1 31/32/1 33/1/1 18/42/1
f 18/42/1 33/1/1 32/4/1 1/43/1
f 68/44/31 74/16/14 16/6/5 8/45/31
f 69/46/32 75/29/20 31/32/20 5/41/32
f 15/38/26 19/5/4 17/7/6
f 20/14/33 24/12/27 23/8/7
f 34/47/34 37/48/35 36/49/36
f 37/48/35 35/50/37 36/49/36
f 61/51/38 38/52/38 40/53/39 62/54/39
f 62/54/40 40/53/40 39/55/41 65/56/41
f 76/57/38 35/50/42 37/58/39 77/59/39
f 77/59/40 37/58/40 34/47/43 78/60/41
f 76/57/38 70/61/18 2/62/44 35/50/42
f 6/36/28 34/63/34 36/64/36 30/39/29
f 30/39/29 36/64/36 35/65/37 2/40/30
f 71/35/9 78/60/41 34/47/43 6/36/24
f 46/66/9 65/56/41 39/55/41 7/67/9
f 61/51/38 47/68/18 4/69/18 38/52/38
f 41/70/38 9/71/18 49/72/18 59/73/38
f 59/73/38 49/72/18 48/74/18 60/75/38
f 60/75/38 48/74/18 47/68/18 61/51/38
f 10/76/9 42/77/41 67/78/41 44/79/9
f 44/79/9 67/78/41 66/80/41 45/81/9
f 45/81/9 66/80/41 65/56/41 46/66/9
f 43/82/40 64/83/40 67/78/41 42/77/41
f 64/83/40 63/84/40 66/80/41 67/78/41
f 63/84/40 62/54/40 65/56/41 66/80/41
f 41/70/38 59/73/38 64/83/39 43/82/39
f 59/73/38 60/75/38 63/84/39 64/83/39
f 60/75/38 61/51/38 62/54/39 63/84/39
f 15/38/19 52/85/19 58/86/19 27/11/19
f 52/85/19 51/87/19 57/24/19 58/86/19
f 51/87/19 50/20/19 56/24/19 57/24/19
f 13/25/23 10/76/9 44/88/9 53/26/23
f 53/26/23 44/88/9 45/89/9 54/90/23
f 54/90/23 45/89/9 46/34/9 55/33/23
f 27/11/19 58/86/19 55/33/19 21/9/19
f 58/86/19 57/24/19 54/90/19 55/33/19
f 57/24/19 56/24/19 53/26/19 54/90/19
f 15/38/26 4/91/18 47/92/18 52/85/17
f 52/85/17 47/92/18 48/93/18 51/87/17
f 51/87/17 48/93/18 49/21/18 50/20/17
f 7/67/9 39/55/41 78/60/41 71/35/9
f 38/52/38 4/69/18 70/61/18 76/57/38
f 40/53/40 77/59/40 78/60/41 39/55/41
f 38/52/38 76/57/38 77/59/39 40/53/39
f 3/19/32 20/14/33 75/29/20 69/46/32
f 1/94/31 32/95/14 74/16/14 68/44/31
f 23/8/7 7/67/9 71/35/9 73/30/21
f 20/14/33 23/8/7 73/30/21 75/29/20
f 11/96/45 2/97/44 70/27/18 72/17/15
f 32/95/14 11/96/45 72/17/15 74/16/14
f 82/98/46 86/99/46 87/99/46 95/98/46
f 83/100/47 80/101/47 91/101/47 89/100/47
f 81/102/48 85/103/48 94/103/48 93/102/48
f 85/103/49 82/98/49 95/98/49 94/103/49
f 1/104/19 83/100/19 79/105/19 18/106/19
f 3/19/19 69/46/19 82/98/19 85/103/19
f 8/37/19 22/18/19 81/102/19 84/107/19
f 86/99/19 82/98/19 69/46/19 5/41/19
f 68/108/19 80/101/19 83/100/19 1/104/19
f 79/105/19 86/99/19 5/41/19 18/106/19
f 68/108/19 8/37/19 84/107/19 80/101/19
f 22/18/19 3/19/19 85/103/19 81/102/19
f 88/105/50 89/100/51 90/109/19
f 91/101/52 92/107/53 90/109/19
f 93/102/54 94/103/55 90/109/19
f 95/98/56 87/99/57 90/109/19
f 86/99/58 79/105/58 88/105/58 87/99/58
f 84/107/59 81/102/59 93/102/59 92/107/59
f 80/101/60 84/107/60 92/107/60 91/101/60
f 79/105/61 83/100/61 89/100/61 88/105/61
f 87/99/57 88/105/50 90/109/19
f 92/107/53 93/102/54 90/109/19
f 94/103/55 95/98/56 90/109/19
f 89/100/51 91/101/52 90/109/19
f 123/1/16 122/4/16 104/3/62 116/2/63
f 110/5/64 108/7/65 107/6/66
f 114/8/67 102/10/9 112/9/8
f 117/11/68 118/13/69 115/12/70 112/9/68
f 118/13/69 119/15/71 111/14/71 115/12/70
f 161/16/14 107/6/66 108/7/65 159/17/15
f 113/18/1 98/19/1 111/14/1 119/15/1
f 137/20/17 14/23/17 9/22/18 136/21/18
f 143/24/19 140/26/19 13/25/19 25/24/19
f 159/17/15 108/7/65 99/28/18 157/27/18
f 162/29/20 121/32/20 105/31/22 160/30/21
f 142/33/23 112/9/8 102/10/9 133/34/9
f 160/30/21 105/31/22 101/36/24 158/35/9
f 137/20/19 143/24/19 25/24/19 14/23/19
f 103/37/1 113/18/1 119/15/1 107/6/1
f 110/5/70 107/6/71 119/15/71 118/13/69
f 106/38/68 110/5/70 118/13/69 117/11/68
f 121/32/16 123/1/16 116/2/63 105/31/72
f 99/28/18 108/7/65 106/38/26
f 115/12/73 114/8/67 112/9/8
f 105/31/72 116/2/63 120/39/74 101/36/75
f 116/2/63 104/3/62 97/40/76 120/39/74
f 100/41/16 109/42/16 123/1/16 121/32/16
f 109/42/16 96/43/16 122/4/16 123/1/16
f 155/44/31 103/45/31 107/6/66 161/16/14
f 156/46/32 100/41/32 121/32/20 162/29/20
f 106/38/26 108/7/65 110/5/64
f 111/14/77 114/8/67 115/12/73
f 124/47/78 126/49/79 127/48/80
f 127/48/80 126/49/79 125/50/81
f 148/51/38 149/54/39 130/53/39 128/52/38
f 149/54/40 152/56/41 129/55/41 130/53/40
f 163/57/38 164/59/39 127/58/39 125/50/42
f 164/59/40 165/60/41 124/47/43 127/58/40
f 163/57/38 125/50/42 97/62/44 157/61/18
f 101/36/75 120/39/74 126/64/79 124/63/78
f 120/39/74 97/40/76 125/65/81 126/64/79
f 158/35/9 101/36/24 124/47/43 165/60/41
f 133/66/9 102/67/9 129/55/41 152/56/41
f 148/51/38 128/52/38 99/69/18 134/68/18
f 41/70/38 146/73/38 136/72/18 9/71/18
f 146/73/38 147/75/38 135/74/18 136/72/18
f 147/75/38 148/51/38 134/68/18 135/74/18
f 10/76/9 131/79/9 154/78/41 42/77/41
f 131/79/9 132/81/9 153/80/41 154/78/41
f 132/81/9 133/66/9 152/56/41 153/80/41
f 43/82/40 42/77/41 154/78/41 151/83/40
f 151/83/40 154/78/41 153/80/41 150/84/40
f 150/84/40 153/80/41 152/56/41 149/54/40
f 41/70/38 43/82/39 151/83/39 146/73/38
f 146/73/38 151/83/39 150/84/39 147/75/38
f 147/75/38 150/84/39 149/54/39 148/51/38
f 106/38/19 117/11/19 145/86/19 139/85/19
f 139/85/19 145/86/19 144/24/19 138/87/19
f 138/87/19 144/24/19 143/24/19 137/20/19
f 13/25/23 140/26/23 131/88/9 10/76/9
f 140/26/23 141/90/23 132/89/9 131/88/9
f 141/90/23 142/33/23 133/34/9 132/89/9
f 117/11/19 112/9/19 142/33/19 145/86/19
f 145/86/19 142/33/19 141/90/19 144/24/19
f 144/24/19 141/90/19 140/26/19 143/24/19
f 106/38/26 139/85/17 134/92/18 99/91/18
f 139/85/17 138/87/17 135/93/18 134/92/18
f 138/87/17 137/20/17 136/21/18 135/93/18
f 102/67/9 158/35/9 165/60/41 129/55/41
f 128/52/38 163/57/38 157/61/18 99/69/18
f 130/53/40 129/55/41 165/60/41 164/59/40
f 128/52/38 130/53/39 164/59/39 163/57/38
f 98/19/32 156/46/32 162/29/20 111/14/77
f 96/94/31 155/44/31 161/16/14 122/95/14
f 114/8/67 160/30/21 158/35/9 102/67/9
f 111/14/77 162/29/20 160/30/21 114/8/67
f 104/96/45 159/17/15 157/27/18 97/97/44
f 122/95/14 161/16/14 159/17/15 104/96/45
f 169/98/49 182/98/49 174/99/49 173/99/49
f 170/100/60 176/100/60 178/101/60 167/101/60
f 168/102/58 180/102/58 181/103/58 172/103/58
f 172/103/46 181/103/46 182/98/46 169/98/46
f 96/104/19 109/106/19 166/105/19 170/100/19
f 98/19/19 172/103/19 169/98/19 156/46/19
f 103/37/19 171/107/19 168/102/19 113/18/19
f 173/99/19 100/41/19 156/46/19 169/98/19
f 155/108/19 96/104/19 170/100/19 167/101/19
f 166/105/19 109/106/19 100/41/19 173/99/19
f 155/108/19 167/101/19 171/107/19 103/37/19
f 113/18/19 168/102/19 172/103/19 98/19/19
f 175/105/54 177/109/19 176/100/53
f 178/101/52 177/109/19 179/107/51
f 180/102/50 177/109/19 181/103/57
f 182/98/56 177/109/19 174/99/55
f 173/99/48 174/99/48 175/105/48 166/105/48
f 171/107/61 179/107/61 180/102/61 168/102/61
f 167/101/47 178/101/47 179/107/47 171/107/47
f 166/105/59 175/105/59 176/100/59 170/100/59
f 174/99/55 177/109/19 175/105/54
f 179/107/51 177/109/19 180/102/50
f 181/103/57 177/109/19 182/98/56
f 176/100/53 177/109/19 178/101/52
