# Blender 4.5.1 LTS
# www.blender.org
mtllib RUCHKA53.mtl
o Cube
v -0.007429 -0.011729 0.600000
v -0.010241 -0.011729 0.600000
v -0.007429 -0.011729 -0.600000
v -0.010241 -0.011729 -0.600000
v 0.010750 -0.000324 0.600000
v 0.010750 0.008151 0.600000
v 0.010750 -0.000324 -0.600000
v 0.010750 0.008151 -0.600000
v 0.002139 0.001729 -0.600000
v -0.000107 0.012000 -0.600000
v 0.002139 0.001729 0.600000
v -0.000107 0.012000 0.600000
v -0.008102 -0.010488 -0.600000
v -0.010609 -0.010490 0.600000
v -0.010609 -0.010490 -0.600000
v -0.008102 -0.010488 0.600000
vn -0.0000 -1.0000 -0.0000
vn -0.0000 -0.0000 -1.0000
vn 1.0000 -0.0000 -0.0000
vn -0.0000 -0.0001 1.0000
vn -0.2319 -0.9727 -0.0000
vn -0.9586 -0.2847 -0.0000
vn 0.3342 0.9425 -0.0000
vn 0.7664 -0.6424 -0.0000
vn -0.0000 -0.0000 1.0000
vn 0.0001 -0.0000 -1.0000
vn -0.0000 0.0001 -1.0000
vn 0.8790 0.4768 -0.0000
vn -0.9061 0.4231 -0.0000
vt 0.625000 1.000000
vt 0.375000 0.250000
vt 0.375000 1.000000
vt 0.375000 0.422619
vt 0.625000 0.500000
vt 0.375000 0.500000
vt 0.625000 0.750000
vt 0.375000 0.750000
vt 0.375000 0.975171
vt 0.297619 0.750000
vt 0.297619 0.500000
vt 0.875000 0.500000
vt 0.850171 0.750000
vt 0.850171 0.500000
vt 0.702381 0.500000
vt 0.149829 0.750000
vt 0.149829 0.500000
vt 0.375000 0.827381
vt 0.625000 0.274829
vt 0.375000 0.274829
vt 0.625000 0.250000
vt 0.125000 0.750000
vt 0.125000 0.500000
vt 0.702381 0.750000
vt 0.625000 0.975171
vt 0.625000 0.422619
vt 0.875000 0.750000
vt 0.625000 0.827381
s 0
f 2/1/1 3/2/1 1/3/1
f 9/4/2 8/5/2 7/6/2
f 7/6/3 6/7/3 5/8/3
f 16/9/4 2/1/4 1/3/4
f 7/6/5 11/10/5 9/11/5
f 4/12/6 14/13/6 15/14/6
f 10/15/7 6/7/7 8/5/7
f 9/11/8 16/16/8 13/17/8
f 6/7/9 11/18/9 5/8/9
f 15/19/10 9/4/10 13/20/10
f 4/21/11 13/20/11 3/2/11
f 13/17/12 1/22/12 3/23/12
f 10/15/13 14/13/13 12/24/13
f 11/18/9 14/25/9 16/9/9
f 2/1/1 4/12/1 3/2/1
f 9/4/2 10/26/2 8/5/2
f 7/6/3 8/5/3 6/7/3
f 16/9/9 14/25/9 2/1/9
f 7/6/5 5/8/5 11/10/5
f 4/12/6 2/27/6 14/13/6
f 10/15/7 12/24/7 6/7/7
f 9/11/8 11/10/8 16/16/8
f 6/7/9 12/28/9 11/18/9
f 15/19/2 10/26/2 9/4/2
f 4/21/10 15/19/10 13/20/10
f 13/17/12 16/16/12 1/22/12
f 10/15/13 15/14/13 14/13/13
f 11/18/9 12/28/9 14/25/9
