# Blender 4.5.1 LTS
# www.blender.org
mtllib RUCHKA62.mtl
o Cube
v -0.005350 -0.009250 0.600000
v -0.005350 0.009250 0.600000
v -0.005350 -0.009250 -0.600000
v -0.005350 0.009250 -0.600000
v 0.000692 -0.009250 0.600000
v 0.005350 0.009250 0.600000
v 0.000692 -0.009250 -0.600000
v 0.005350 0.009250 -0.600000
v -0.005350 0.006668 0.600000
v -0.005350 0.006668 -0.600000
v 0.005350 0.006668 -0.600000
v 0.005350 0.006668 0.600000
v -0.005350 0.003461 -0.600000
v 0.000692 0.003461 -0.600000
v 0.000692 0.003461 0.600000
v -0.005350 0.003461 0.600000
vn -1.0000 -0.0000 -0.0000
vn -0.0000 -0.0000 -1.0000
vn 1.0000 -0.0000 -0.0000
vn -0.0000 -0.0000 1.0000
vn -0.0000 -1.0000 -0.0000
vn -0.0000 1.0000 -0.0000
vn 0.5671 -0.8237 -0.0000
vt 0.625000 0.000000
vt 0.590104 0.250000
vt 0.590104 0.000000
vt 0.625000 0.250000
vt 0.590104 0.500000
vt 0.625000 0.500000
vt 0.590104 0.750000
vt 0.625000 0.750000
vt 0.590104 1.000000
vt 0.375000 0.500000
vt 0.125000 0.750000
vt 0.125000 0.500000
vt 0.875000 0.500000
vt 0.546770 0.750000
vt 0.546770 1.000000
vt 0.546770 0.500000
vt 0.546770 0.250000
vt 0.546770 0.000000
vt 0.375000 0.250000
vt 0.375000 0.000000
vt 0.375000 0.750000
vt 0.375000 1.000000
vt 0.625000 1.000000
vt 0.875000 0.750000
s 0
f 2/1/1 10/2/1 9/3/1
f 4/4/2 11/5/2 10/2/2
f 8/6/3 12/7/3 11/5/3
f 6/8/4 9/9/4 12/7/4
f 7/10/5 1/11/5 3/12/5
f 4/13/6 6/8/6 8/6/6
f 15/14/4 9/9/4 16/15/4
f 11/5/7 15/14/7 14/16/7
f 10/2/2 14/16/2 13/17/2
f 9/3/1 13/17/1 16/18/1
f 16/18/1 3/19/1 1/20/1
f 13/17/2 7/10/2 3/19/2
f 14/16/3 5/21/3 7/10/3
f 5/21/4 16/15/4 1/22/4
f 2/1/1 4/4/1 10/2/1
f 4/4/2 8/6/2 11/5/2
f 8/6/3 6/8/3 12/7/3
f 6/8/4 2/23/4 9/9/4
f 7/10/5 5/21/5 1/11/5
f 4/13/6 2/24/6 6/8/6
f 15/14/4 12/7/4 9/9/4
f 11/5/7 12/7/7 15/14/7
f 10/2/2 11/5/2 14/16/2
f 9/3/1 10/2/1 13/17/1
f 16/18/1 13/17/1 3/19/1
f 13/17/2 14/16/2 7/10/2
f 14/16/3 15/14/3 5/21/3
f 5/21/4 15/14/4 16/15/4
