# Blender 4.3.2
# www.blender.org
mtllib fasadD1_2.mtl.mtl
o Cube
v 0.024997 2.000000 0.008000
v 0.024997 2.000000 -0.008000
v 0.374997 0.000000 0.008000
v 0.374997 2.000000 0.008000
v 0.374997 0.000000 -0.008000
v 0.374997 2.000000 -0.008000
v 0.042923 1.099596 -0.008000
v 0.042923 1.099596 0.008000
v 0.030629 1.100000 -0.008000
v 0.030629 1.100000 0.008000
v 0.024997 1.100000 -0.008000
v 0.024997 1.100000 0.008000
v 0.055020 1.097362 -0.008000
v 0.055020 1.097362 0.008000
v 0.066138 1.092099 -0.008000
v 0.066138 1.092099 0.008000
v 0.080100 1.072282 -0.008000
v 0.080100 1.072282 0.008000
v 0.074836 1.083400 -0.008000
v 0.074836 1.083400 0.008000
v 0.082334 1.060186 -0.008000
v 0.082334 1.060186 0.008000
v 0.082738 1.047891 -0.008000
v 0.082738 1.047891 0.008000
v 0.082738 0.000000 -0.008000
v 0.082738 0.000000 0.008000
vn 1.0000 -0.0000 -0.0000
vn -0.0000 -0.0000 1.0000
vn -0.0000 1.0000 -0.0000
vn -0.0000 -0.0000 -1.0000
vn -0.0000 -1.0000 -0.0000
vn -1.0000 -0.0000 -0.0000
vn -0.9995 -0.0328 -0.0000
vn -0.9834 -0.1816 -0.0000
vn -0.9038 -0.4279 -0.0000
vn -0.7071 -0.7071 -0.0000
vn -0.4279 -0.9038 -0.0000
vn -0.1816 -0.9834 -0.0000
vn -0.0328 -0.9995 -0.0000
vt 0.625000 0.500000
vt 0.375000 0.750000
vt 0.375000 0.500000
vt 0.625000 0.750000
vt 0.511512 0.970613
vt 0.510425 0.964400
vt 0.875000 0.500000
vt 0.510425 0.285600
vt 0.511512 0.279387
vt 0.166244 0.500000
vt 0.166244 0.750000
vt 0.512500 0.000000
vt 0.625000 0.250000
vt 0.512500 0.250000
vt 0.505986 0.958756
vt 0.505986 0.291244
vt 0.507523 0.959045
vt 0.507523 0.290955
vt 0.509035 0.960640
vt 0.509035 0.289360
vt 0.512170 0.978555
vt 0.512170 0.271445
vt 0.512450 0.987195
vt 0.512450 0.262805
vt 0.512500 0.995977
vt 0.512500 0.254023
vt 0.512500 1.000000
vt 0.375000 0.958756
vt 0.625000 1.000000
vt 0.875000 0.750000
vt 0.375000 0.291244
vt 0.625000 0.000000
s 0
f 6/1/1 3/2/1 5/3/1
f 4/4/2 16/5/2 20/6/2
f 2/7/3 4/4/3 6/1/3
f 6/1/4 19/8/4 15/9/4
f 25/10/5 3/2/5 26/11/5
f 12/12/6 2/13/6 11/14/6
f 25/10/6 24/15/6 23/16/6
f 23/16/7 22/17/7 21/18/7
f 21/18/8 18/19/8 17/20/8
f 17/20/9 20/6/9 19/8/9
f 19/8/10 16/5/10 15/9/10
f 15/9/11 14/21/11 13/22/11
f 13/22/12 8/23/12 7/24/12
f 7/24/13 10/25/13 9/26/13
f 12/27/5 9/26/5 10/25/5
f 6/1/1 4/4/1 3/2/1
f 26/28/2 3/2/2 24/15/2
f 3/2/2 4/4/2 24/15/2
f 4/4/2 1/29/2 14/21/2
f 1/29/2 12/27/2 10/25/2
f 1/29/2 10/25/2 8/23/2
f 22/17/2 24/15/2 4/4/2
f 1/29/2 8/23/2 14/21/2
f 18/19/2 22/17/2 4/4/2
f 20/6/2 18/19/2 4/4/2
f 4/4/2 14/21/2 16/5/2
f 2/7/3 1/30/3 4/4/3
f 5/3/4 25/31/4 23/16/4
f 5/3/4 23/16/4 6/1/4
f 23/16/4 21/18/4 6/1/4
f 2/13/4 6/1/4 13/22/4
f 9/26/4 11/14/4 2/13/4
f 7/24/4 9/26/4 2/13/4
f 6/1/4 21/18/4 17/20/4
f 6/1/4 17/20/4 19/8/4
f 13/22/4 7/24/4 2/13/4
f 15/9/4 13/22/4 6/1/4
f 25/10/5 5/3/5 3/2/5
f 12/12/6 1/32/6 2/13/6
f 25/10/6 26/11/6 24/15/6
f 23/16/7 24/15/7 22/17/7
f 21/18/8 22/17/8 18/19/8
f 17/20/9 18/19/9 20/6/9
f 19/8/10 20/6/10 16/5/10
f 15/9/11 16/5/11 14/21/11
f 13/22/12 14/21/12 8/23/12
f 7/24/13 8/23/13 10/25/13
f 12/27/5 11/14/5 9/26/5
