<svg width="32" height="32" viewBox="0 0 32 32" fill="none" xmlns="http://www.w3.org/2000/svg">
<path d="M32 6.35645L26.1918 12.2188C26.1948 12.2409 26.1996 12.2631 26.1996 12.2861V18.0801L27.6265 16.6387C27.8198 16.4438 28.1335 16.4438 28.3269 16.6387C28.5202 16.8338 28.52 17.1504 28.3269 17.3457L26.3689 19.3223C29.5337 19.6577 32 22.3599 32 25.6436C32 29.1541 29.1808 32 25.7033 32C22.226 31.9998 19.4066 29.154 19.4066 25.6436C19.4067 22.3598 21.8738 19.6576 25.0387 19.3223L23.0807 17.3457C22.8875 17.1504 22.8874 16.8339 23.0807 16.6387C23.2741 16.4438 23.5878 16.4438 23.7811 16.6387L25.209 18.0801V12.2861C25.209 12.2635 25.2119 12.2415 25.2148 12.2197L19.7559 6.70898L17.4835 9.00488C17.29 9.19946 16.9763 9.19989 16.7831 9.00488C16.5901 8.80983 16.5904 8.49309 16.7831 8.29785L18.2109 6.85645H12.5721C12.3365 9.91093 9.96405 12.3587 6.96127 12.6768L8.91925 14.6543C9.11251 14.8496 9.11262 15.1661 8.91925 15.3613C8.72584 15.556 8.41214 15.5562 8.21887 15.3613L6.79198 13.9199V19.2871H12.5934V32H0V19.2871H5.80138V13.9199L4.37353 15.3613C4.18014 15.5561 3.86644 15.5562 3.67315 15.3613C3.47999 15.1662 3.48022 14.8496 3.67315 14.6543L5.63113 12.6768C2.46651 12.3411 3.82051e-05 9.64 0 6.35645C0 2.84592 2.81916 0 6.29668 0C9.60745 3.92552e-05 12.3195 2.57969 12.5721 5.85645H18.2109L16.7831 4.41602C16.5901 4.22098 16.5904 3.90425 16.7831 3.70898C16.9765 3.51378 17.29 3.5139 17.4835 3.70898L19.7568 6.00195L25.7033 0L32 6.35645Z" fill="white"/>
</svg>
