<svg width="32" height="28" viewBox="0 0 32 28" fill="none" xmlns="http://www.w3.org/2000/svg">
<path d="M13.5241 0.13088C13.7011 -0.0436354 13.9879 -0.0436182 14.1649 0.13088L20.6075 6.48603C22.0013 7.0246 23.7751 7.93146 25.4836 9.02669C27.8125 10.5198 30.1224 12.4248 31.2048 14.3245C31.6294 15.0702 31.7243 15.9139 31.7518 16.6731L31.9988 23.4814C32.0187 24.0394 31.7942 24.5795 31.3827 24.963L31.3465 24.9971C30.6464 25.6492 29.5633 25.6863 28.8186 25.0844C28.2571 24.63 28.0088 23.9035 28.161 23.209C29.057 19.1222 29.1622 16.7699 27.8937 15.0117L15.5244 27.2147C14.4628 28.2619 12.7406 28.2616 11.6787 27.2147L0.796377 16.4793C-0.265464 15.4319 -0.265454 13.7341 0.796377 12.6866L4.07744 9.44927C4.80225 9.81831 5.6134 10.1294 6.45747 10.387C9.22037 11.2299 12.4939 11.5533 14.6526 11.4338C14.8108 11.7521 15.1416 11.9716 15.5253 11.9716C16.0621 11.9714 16.497 11.5424 16.4971 11.013C16.497 10.4835 16.0621 10.0536 15.5253 10.0534C15.1639 10.0534 14.8485 10.2485 14.6809 10.5371C12.6583 10.6621 9.44065 10.3617 6.72477 9.53308C6.01359 9.31606 5.34906 9.06349 4.75454 8.78136L13.5241 0.13088ZM27.0413 12.8325C27.606 13.3475 28.0688 13.7975 28.3601 14.1429C30.184 16.3066 29.9848 19.1209 29.047 23.3985C28.9655 23.7709 29.0999 24.155 29.3939 24.3929C29.786 24.7094 30.3559 24.6899 30.7242 24.3466L30.7605 24.3135C30.9826 24.1064 31.1041 23.8141 31.0933 23.5128L30.8464 16.7054C30.82 15.9779 30.7284 15.3143 30.4144 14.7628C29.4444 13.0604 27.2923 11.2529 24.9897 9.77667C24.1366 9.2298 23.2754 8.73661 22.4645 8.31775L27.0413 12.8325ZM5.40155 1.52344C7.2731 1.05254 11.0631 1.09935 12.4741 1.16661L12.4299 2.05977C11.0609 1.99453 7.37284 1.95071 5.62548 2.39041C3.85328 2.83648 2.49382 3.64674 2.10632 4.99481C1.80851 6.03178 2.15883 6.89778 2.99054 7.65509C3.45163 8.0748 4.05432 8.44907 4.75454 8.78136L4.07744 9.44927C3.42759 9.11839 2.8471 8.74106 2.37539 8.31164C1.35726 7.38448 0.821998 6.18757 1.2345 4.75122C1.76112 2.91879 3.55484 1.98826 5.40155 1.52344Z" fill="white"/>
</svg>
