<svg width="32" height="32" viewBox="0 0 32 32" fill="none" xmlns="http://www.w3.org/2000/svg">
<path d="M6.93333 25.0667V32H0.5C0.223858 32 0 31.7761 0 31.5V25.0667H6.93333Z" fill="white"/>
<path d="M15.4667 25.0667V32H8V25.0667H15.4667Z" fill="white"/>
<path d="M24 25.0667V32H16.5333V25.0667H24Z" fill="white"/>
<path d="M32 25.0667V31.5C32 31.7761 31.7761 32 31.5 32H25.0667V25.0667H32Z" fill="white"/>
<path d="M6.93333 16.5333V24H0V16.5333H6.93333Z" fill="white"/>
<path d="M15.4667 16.5333V24H8V16.5333H15.4667Z" fill="white"/>
<path d="M24 16.5333V24H16.5333V16.5333H24Z" fill="white"/>
<path d="M32 16.5333V24H25.0667V16.5333H32Z" fill="white"/>
<path d="M6.93333 8V15.4667H0V8H6.93333Z" fill="white"/>
<path d="M15.4667 8V15.4667H8V8H15.4667Z" fill="white"/>
<path d="M24 8V15.4667H16.5333V8H24Z" fill="white"/>
<path d="M32 8V15.4667H25.0667V8H32Z" fill="white"/>
<path d="M6.93333 0V6.93333H0V0.5C0 0.223858 0.223858 0 0.5 0H6.93333Z" fill="white"/>
<path d="M15.4667 0V6.93333H8V0H15.4667Z" fill="white"/>
<path d="M24 0V6.93333H16.5333V0H24Z" fill="white"/>
<path d="M31.5 0C31.7761 0 32 0.223858 32 0.5V6.93333H25.0667V0H31.5Z" fill="white"/>
</svg>
