<svg width="160" height="160" viewBox="0 0 160 160" fill="none" xmlns="http://www.w3.org/2000/svg">
<rect x="24" y="70" width="64" height="5" fill="#D9D9D9"/>
<rect x="95" y="70" width="49" height="5" fill="#D9D9D9"/>
<rect x="80" y="77" width="62" height="5" fill="#D9D9D9"/>
<rect x="107" y="84" width="13" height="5" fill="#D9D9D9"/>
<rect x="24" y="84" width="76" height="5" fill="#D9D9D9"/>
<path d="M65 91H141V96H65V91Z" fill="#D9D9D9"/>
<rect x="24" y="91" width="34" height="5" fill="#D9D9D9"/>
<rect x="24" y="77" width="49" height="5" fill="#D9D9D9"/>
<path d="M17 73.5C17 72.6716 17.6716 72 18.5 72V72C19.3284 72 20 72.6716 20 73.5V73.5C20 74.3284 19.3284 75 18.5 75V75C17.6716 75 17 74.3284 17 73.5V73.5Z" fill="black"/>
<rect x="24" y="30" width="64" height="5" fill="#D9D9D9"/>
<rect x="95" y="30" width="49" height="5" fill="#D9D9D9"/>
<rect x="80" y="37" width="62" height="5" fill="#D9D9D9"/>
<rect x="107" y="44" width="13" height="5" fill="#D9D9D9"/>
<rect x="24" y="44" width="76" height="5" fill="#D9D9D9"/>
<path d="M65 51H141V56H65V51Z" fill="#D9D9D9"/>
<rect x="24" y="51" width="34" height="5" fill="#D9D9D9"/>
<rect x="24" y="37" width="49" height="5" fill="#D9D9D9"/>
<path d="M17 33.5C17 32.6716 17.6716 32 18.5 32V32C19.3284 32 20 32.6716 20 33.5V33.5C20 34.3284 19.3284 35 18.5 35V35C17.6716 35 17 34.3284 17 33.5V33.5Z" fill="black"/>
<rect x="24" y="109" width="64" height="5" fill="#D9D9D9"/>
<rect x="95" y="109" width="49" height="5" fill="#D9D9D9"/>
<rect x="80" y="116" width="62" height="5" fill="#D9D9D9"/>
<rect x="107" y="123" width="13" height="5" fill="#D9D9D9"/>
<rect x="24" y="123" width="76" height="5" fill="#D9D9D9"/>
<path d="M65 130H141V135H65V130Z" fill="#D9D9D9"/>
<rect x="24" y="130" width="34" height="5" fill="#D9D9D9"/>
<rect x="24" y="116" width="49" height="5" fill="#D9D9D9"/>
<path d="M17 112.5C17 111.672 17.6716 111 18.5 111V111C19.3284 111 20 111.672 20 112.5V112.5C20 113.328 19.3284 114 18.5 114V114C17.6716 114 17 113.328 17 112.5V112.5Z" fill="black"/>
<rect x="24" y="70" width="64" height="5" fill="#D9D9D9"/>
<rect x="95" y="70" width="49" height="5" fill="#D9D9D9"/>
<rect x="80" y="77" width="62" height="5" fill="#D9D9D9"/>
<rect x="107" y="84" width="13" height="5" fill="#D9D9D9"/>
<rect x="24" y="84" width="76" height="5" fill="#D9D9D9"/>
<path d="M65 91H141V96H65V91Z" fill="#D9D9D9"/>
<rect x="24" y="91" width="34" height="5" fill="#D9D9D9"/>
<rect x="24" y="77" width="49" height="5" fill="#D9D9D9"/>
<path d="M17 73.5C17 72.6716 17.6716 72 18.5 72V72C19.3284 72 20 72.6716 20 73.5V73.5C20 74.3284 19.3284 75 18.5 75V75C17.6716 75 17 74.3284 17 73.5V73.5Z" fill="black"/>
</svg>
