<svg width="32" height="32" viewBox="0 0 32 32" fill="none" xmlns="http://www.w3.org/2000/svg">
<path fill-rule="evenodd" clip-rule="evenodd" d="M14.8048 0.0102385L31.3264 2.73914C31.9791 2.84712 32.2292 3.64883 31.7528 4.10555L26.2401 9.38742L31.3146 10.226C31.9674 10.3339 32.2175 11.1357 31.741 11.5924L26.1802 16.9203L31.3146 17.7686C31.9674 17.8765 32.2175 18.6783 31.741 19.135L18.5498 31.7758C18.3479 31.969 18.0593 32.0445 17.7882 31.9742L0.601399 27.5094C-0.0407549 27.3422 -0.214732 26.5168 0.305617 26.1068L6.24386 21.4319L0.601399 19.9668C-0.0407553 19.7997 -0.214412 18.9743 0.305617 18.5642L6.19276 13.9294L0.613191 12.4799C-0.0295136 12.313 -0.203487 11.4873 0.317409 11.0773L14.174 0.172487L14.2427 0.123617C14.3853 0.0338562 14.5528 -0.00858598 14.7213 0.00144189L14.8048 0.0102385ZM18.5498 24.2332C18.3479 24.4262 18.0591 24.5018 17.7882 24.4316L7.46138 21.7486L1.24603 26.6415L17.9326 30.9772L30.7545 18.6903L25.2781 17.7843L18.5498 24.2332ZM18.5616 16.7463C18.3598 16.9396 18.0711 17.0149 17.8 16.9447L7.41126 14.2451L1.24603 19.0989L17.9326 23.4346L30.7545 11.1477L25.338 10.2514L18.5616 16.7463Z" fill="white"/>
</svg>
