<svg width="33" height="31" viewBox="0 0 33 31" fill="none" xmlns="http://www.w3.org/2000/svg">
<path d="M16.505 12.1316V25.9237M16.505 12.1316L12.5 8.43062V5.07627M16.505 12.1316L20.5 8.43062V5.07627M12.5 5.07627V0.500001M12.5 5.07627H10.5M12.5 5.07627H20.5M12.5 0.500001L20.5 0.505293M12.5 0.500001L0.500002 0.5M20.5 5.07627V0.505293M20.5 5.07627H22.5M20.5 0.505293L32.5 0.505293M0.5 27.9576H12.5L14.5 30.5M32.5 27.9576H20.5L18.5 30.5M10 25.4153H12M23 25.4153H21M11.7436 21.0638L13.1578 22.502M21.2768 21.0638L19.8626 22.502" stroke="white" stroke-linecap="round"/>
</svg>
