<svg width="25" height="32" viewBox="0 0 25 32" fill="none" xmlns="http://www.w3.org/2000/svg">
<path d="M23.9229 0C24.199 0 24.4229 0.223858 24.4229 0.5V31.5C24.4229 31.7761 24.199 32 23.9229 32H0.5C0.223858 32 0 31.7761 0 31.5V0.5C0 0.223858 0.223858 8.42014e-09 0.5 0H23.9229ZM5.14844 24.999C4.82405 24.9994 4.56064 25.2634 4.56055 25.5879C4.56075 25.9123 4.82411 26.1754 5.14844 26.1758H10.4463C10.7709 26.1757 11.034 25.9125 11.0342 25.5879C11.0341 25.2632 10.771 24.9991 10.4463 24.999H5.14844ZM13.9766 24.999C13.652 24.9992 13.3888 25.2633 13.3887 25.5879C13.3889 25.9124 13.6521 26.1756 13.9766 26.1758H19.2734C19.5981 26.1758 19.8621 25.9125 19.8623 25.5879C19.8622 25.2632 19.5982 24.999 19.2734 24.999H13.9766ZM5.14844 22.3438C4.82405 22.3441 4.56064 22.6072 4.56055 22.9316C4.56055 23.2562 4.82399 23.5191 5.14844 23.5195H10.4463C10.771 23.5195 11.0342 23.2564 11.0342 22.9316C11.0341 22.607 10.771 22.3438 10.4463 22.3438H5.14844ZM13.9766 22.3438C13.652 22.3439 13.3888 22.6071 13.3887 22.9316C13.3887 23.2563 13.6519 23.5193 13.9766 23.5195H19.2734C19.5982 23.5195 19.8623 23.2564 19.8623 22.9316C19.8622 22.6069 19.5982 22.3438 19.2734 22.3438H13.9766ZM5.14844 19.6875C4.82416 19.6879 4.56083 19.9511 4.56055 20.2754C4.56055 20.5999 4.82399 20.8639 5.14844 20.8643H10.4463C10.771 20.8642 11.0342 20.6002 11.0342 20.2754C11.0339 19.9509 10.7709 19.6875 10.4463 19.6875H5.14844ZM13.9766 19.6875C13.6521 19.6877 13.389 19.951 13.3887 20.2754C13.3887 20.6001 13.6519 20.8641 13.9766 20.8643H19.2734C19.5982 20.8643 19.8623 20.6002 19.8623 20.2754C19.862 19.9508 19.598 19.6875 19.2734 19.6875H13.9766ZM5.14844 17.0322C4.82405 17.0326 4.56064 17.2957 4.56055 17.6201C4.56069 17.9445 4.82408 18.2076 5.14844 18.208H10.4463C10.7709 18.208 11.034 17.9448 11.0342 17.6201C11.0341 17.2954 10.771 17.0323 10.4463 17.0322H5.14844ZM13.9766 17.0322C13.652 17.0324 13.3888 17.2955 13.3887 17.6201C13.3888 17.9447 13.652 18.2078 13.9766 18.208H19.2734C19.5981 18.208 19.8622 17.9448 19.8623 17.6201C19.8622 17.2954 19.5982 17.0322 19.2734 17.0322H13.9766ZM5.14844 14.376C4.82408 14.3764 4.56069 14.6394 4.56055 14.9639C4.56055 15.2884 4.82399 15.5514 5.14844 15.5518H10.4463C10.771 15.5517 11.0342 15.2886 11.0342 14.9639C11.034 14.6392 10.7709 14.376 10.4463 14.376H5.14844ZM13.9766 14.376C13.652 14.3762 13.3888 14.6393 13.3887 14.9639C13.3887 15.2885 13.6519 15.5516 13.9766 15.5518H19.2734C19.5982 15.5518 19.8623 15.2887 19.8623 14.9639C19.8622 14.6392 19.5981 14.376 19.2734 14.376H13.9766ZM5.14844 8.70703C4.82407 8.70742 4.56068 8.97049 4.56055 9.29492C4.56055 9.61946 4.82399 9.88242 5.14844 9.88281H19.2734C19.5982 9.88281 19.8623 9.61971 19.8623 9.29492C19.8622 8.97025 19.5981 8.70703 19.2734 8.70703H5.14844ZM5.14844 5.82324C4.82414 5.82362 4.56081 6.0868 4.56055 6.41113C4.56055 6.73568 4.82398 6.99962 5.14844 7H19.2734C19.5982 7 19.8623 6.73592 19.8623 6.41113C19.862 6.08657 19.5981 5.82324 19.2734 5.82324H5.14844Z" fill="white"/>
</svg>
