<svg width="32" height="28" viewBox="0 0 32 28" fill="none" xmlns="http://www.w3.org/2000/svg">
<path fill-rule="evenodd" clip-rule="evenodd" d="M25.1241 0C25.7022 0.000105776 26.171 0.477434 26.1712 1.06583V4.05621H28.7563L28.8197 4.06245C28.9625 4.09239 29.07 4.22164 29.0703 4.37575V6.88941H31.6861L31.7495 6.89565C31.8923 6.92561 31.9998 7.05473 32 7.20895V27.6794L31.9939 27.7439C31.9689 27.8688 31.872 27.967 31.7495 27.9927L31.6861 28H7.18985L7.12645 27.9927C6.98378 27.9625 6.87591 27.8336 6.87591 27.6794V25.1668H4.26012L4.19672 25.1595C4.0541 25.1293 3.94619 25.0004 3.94619 24.8462V22.2139C3.94619 22.2012 3.94942 22.1889 3.95028 22.1764H1.04714C0.469153 22.1762 0.000207148 21.6989 0 21.1106V1.06583C0.000207144 0.477521 0.469152 0.000245891 1.04714 0H25.1241ZM29.0703 24.8462L29.0641 24.9107C29.0392 25.0357 28.9423 25.1337 28.8197 25.1595L28.7563 25.1668H7.92305V26.4012C7.92305 26.6955 8.15753 26.9341 8.44662 26.9342H30.4293C30.7185 26.9342 30.9529 26.6956 30.9529 26.4012V8.48816C30.9529 8.19384 30.7185 7.95524 30.4293 7.95524H29.0703V24.8462ZM26.1712 21.1106C26.171 21.699 25.7022 22.1763 25.1241 22.1764H4.99025C4.99111 22.1888 4.99332 22.2012 4.99332 22.2139V23.568C4.99332 23.8623 5.22782 24.1009 5.51689 24.101H27.4996C27.7887 24.101 28.0231 23.8624 28.0231 23.568V5.65496C28.023 5.36075 27.7886 5.12204 27.4996 5.12204H26.1712V21.1106ZM1.04714 11.3089V21.1106H25.1241V15.2235L20.278 10.2545L15.3184 15.3786C15.1156 15.5882 14.7841 15.5911 14.5781 15.3849C14.3725 15.1783 14.3702 14.8398 14.573 14.6302L15.7265 13.4364L7.34119 4.90242L1.04714 11.3089ZM1.04714 9.80172L6.60084 4.14884C7.00963 3.73275 7.67259 3.73303 8.08155 4.14884L16.4617 12.6776L19.5315 9.50611C19.9403 9.08374 20.6097 9.08279 21.0204 9.50299L25.1241 13.7112V1.06583H1.04714V9.80172Z" fill="white"/>
<path d="M18.4183 4.91608C18.4183 5.62825 17.8511 6.20557 17.1514 6.20557C16.4518 6.20557 15.8846 5.62825 15.8846 4.91608C15.8846 4.20392 16.4518 3.62659 17.1514 3.62659C17.8511 3.62659 18.4183 4.20392 18.4183 4.91608Z" fill="white"/>
</svg>
