<svg width="27" height="32" viewBox="0 0 27 32" fill="none" xmlns="http://www.w3.org/2000/svg">
<path d="M12.6875 21.7354C12.9636 21.7354 13.1874 21.9593 13.1875 22.2354C13.1875 22.5115 12.9636 22.7354 12.6875 22.7354H4.6875C4.41136 22.7354 4.1875 22.5115 4.1875 22.2354C4.18763 21.9593 4.41144 21.7354 4.6875 21.7354H12.6875Z" fill="white"/>
<path d="M21.6875 17.7354C21.9636 17.7354 22.1874 17.9593 22.1875 18.2354C22.1875 18.5115 21.9636 18.7354 21.6875 18.7354H4.6875C4.41136 18.7354 4.1875 18.5115 4.1875 18.2354C4.18763 17.9593 4.41144 17.7354 4.6875 17.7354H21.6875Z" fill="white"/>
<path d="M21.6875 13.7354C21.9636 13.7354 22.1874 13.9593 22.1875 14.2354C22.1875 14.5115 21.9636 14.7354 21.6875 14.7354H4.6875C4.41136 14.7354 4.1875 14.5115 4.1875 14.2354C4.18763 13.9593 4.41144 13.7354 4.6875 13.7354H21.6875Z" fill="white"/>
<path d="M21.1875 4.36914C21.7397 4.36914 22.1874 4.81691 22.1875 5.36914V8.36914C22.1875 8.92143 21.7398 9.36914 21.1875 9.36914H5.1875C4.63522 9.36914 4.1875 8.92143 4.1875 8.36914V5.36914C4.18757 4.81691 4.63526 4.36914 5.1875 4.36914H21.1875Z" fill="white"/>
<path fill-rule="evenodd" clip-rule="evenodd" d="M24.875 0C25.7034 0 26.375 0.671573 26.375 1.5V30.5C26.375 31.3284 25.7034 32 24.875 32H1.5C0.671573 32 1.40931e-08 31.3284 0 30.5V1.5C0 0.671572 0.671574 8.43068e-09 1.5 0H24.875ZM1.5 1C1.22386 1 1 1.22386 1 1.5V30.5L1.00977 30.6006C1.04966 30.7961 1.20392 30.9503 1.39941 30.9902L1.5 31H24.875L24.9756 30.9902C25.2036 30.9437 25.375 30.7417 25.375 30.5V1.5C25.375 1.22386 25.1511 1 24.875 1H1.5Z" fill="white"/>
</svg>
