<svg width="161" height="161" viewBox="0 0 161 161" fill="none" xmlns="http://www.w3.org/2000/svg">
<rect x="22" y="37" width="24" height="5" fill="#D9D9D9"/>
<rect x="53" y="37" width="40" height="5" fill="#D9D9D9"/>
<rect x="22" y="65" width="40" height="5" fill="#D9D9D9"/>
<rect x="100" y="37" width="40" height="5" fill="#D9D9D9"/>
<rect x="22" y="44" width="14" height="5" fill="#D9D9D9"/>
<rect x="100" y="65" width="14" height="5" fill="#D9D9D9"/>
<rect x="43" y="44" width="27" height="5" fill="#D9D9D9"/>
<rect x="77" y="44" width="52" height="5" fill="#D9D9D9"/>
<rect x="22" y="51" width="24" height="5" fill="#D9D9D9"/>
<rect x="69" y="65" width="45" height="5" fill="#D9D9D9"/>
<rect x="53" y="51" width="6" height="5" fill="#D9D9D9"/>
<rect x="22" y="58" width="48" height="5" fill="#D9D9D9"/>
<rect x="65" y="51" width="28" height="5" fill="#D9D9D9"/>
<rect x="121" y="65" width="19" height="5" fill="#D9D9D9"/>
<rect x="100" y="51" width="38" height="5" fill="#D9D9D9"/>
<rect x="77" y="58" width="42" height="5" fill="#D9D9D9"/>
<rect x="22" y="93" width="24" height="5" fill="#D9D9D9"/>
<rect x="53" y="93" width="24" height="5" fill="#D9D9D9"/>
<rect x="22" y="100" width="48" height="5" fill="#D9D9D9"/>
<rect x="65" y="93" width="28" height="5" fill="#D9D9D9"/>
<rect x="100" y="93" width="38" height="5" fill="#D9D9D9"/>
<rect x="77" y="100" width="42" height="5" fill="#D9D9D9"/>
<rect x="22" y="72" width="24" height="5" fill="#D9D9D9"/>
<rect x="53" y="72" width="40" height="5" fill="#D9D9D9"/>
<rect x="22" y="86" width="40" height="5" fill="#D9D9D9"/>
<rect x="100" y="72" width="40" height="5" fill="#D9D9D9"/>
<rect x="22" y="65" width="40" height="5" fill="#D9D9D9"/>
<rect x="100" y="65" width="14" height="5" fill="#D9D9D9"/>
<rect x="69" y="65" width="45" height="5" fill="#D9D9D9"/>
<rect x="121" y="65" width="19" height="5" fill="#D9D9D9"/>
<rect x="22" y="72" width="43" height="5" fill="#D9D9D9"/>
<rect x="53" y="72" width="40" height="5" fill="#D9D9D9"/>
<rect x="100" y="72" width="40" height="5" fill="#D9D9D9"/>
<rect x="69" y="86" width="45" height="5" fill="#D9D9D9"/>
<rect x="69" y="86" width="24" height="5" fill="#D9D9D9"/>
<rect x="22" y="79" width="48" height="5" fill="#D9D9D9"/>
<rect x="121" y="86" width="19" height="5" fill="#D9D9D9"/>
<rect x="77" y="79" width="42" height="5" fill="#D9D9D9"/>
<rect x="121" y="108" width="19" height="5" fill="#D9D9D9"/>
<rect x="69" y="108" width="24" height="5" fill="#D9D9D9"/>
<rect x="69" y="108" width="45" height="5" fill="#D9D9D9"/>
<rect x="22" y="108" width="40" height="5" fill="#D9D9D9"/>
<rect x="100" y="115" width="40" height="5" fill="#D9D9D9"/>
<rect x="53" y="115" width="40" height="5" fill="#D9D9D9"/>
<rect x="22" y="115" width="24" height="5" fill="#D9D9D9"/>
<rect x="22" y="37" width="24" height="5" fill="#D9D9D9"/>
<rect x="53" y="37" width="40" height="5" fill="#D9D9D9"/>
<rect x="22" y="65" width="40" height="5" fill="#D9D9D9"/>
<rect x="100" y="37" width="40" height="5" fill="#D9D9D9"/>
<rect x="22" y="44" width="14" height="5" fill="#D9D9D9"/>
<rect x="100" y="65" width="14" height="5" fill="#D9D9D9"/>
<rect x="43" y="44" width="27" height="5" fill="#D9D9D9"/>
<rect x="77" y="44" width="52" height="5" fill="#D9D9D9"/>
<rect x="22" y="51" width="24" height="5" fill="#D9D9D9"/>
<rect x="69" y="65" width="45" height="5" fill="#D9D9D9"/>
<rect x="53" y="51" width="6" height="5" fill="#D9D9D9"/>
<rect x="22" y="58" width="48" height="5" fill="#D9D9D9"/>
<rect x="65" y="51" width="28" height="5" fill="#D9D9D9"/>
<rect x="121" y="65" width="19" height="5" fill="#D9D9D9"/>
<rect x="100" y="51" width="38" height="5" fill="#D9D9D9"/>
<rect x="77" y="58" width="42" height="5" fill="#D9D9D9"/>
<rect x="22" y="72" width="24" height="5" fill="#D9D9D9"/>
<rect x="53" y="72" width="40" height="5" fill="#D9D9D9"/>
<rect x="100" y="72" width="40" height="5" fill="#D9D9D9"/>
<rect x="22" y="65" width="40" height="5" fill="#D9D9D9"/>
<rect x="100" y="65" width="14" height="5" fill="#D9D9D9"/>
<rect x="69" y="65" width="45" height="5" fill="#D9D9D9"/>
<rect x="121" y="65" width="19" height="5" fill="#D9D9D9"/>
<rect x="22" y="72" width="24" height="5" fill="#D9D9D9"/>
<rect x="53" y="72" width="40" height="5" fill="#D9D9D9"/>
<rect x="100" y="72" width="40" height="5" fill="#D9D9D9"/>
<rect x="22" y="93" width="24" height="5" fill="#D9D9D9"/>
<rect x="53" y="93" width="6" height="5" fill="#D9D9D9"/>
<rect x="22" y="100" width="48" height="5" fill="#D9D9D9"/>
<rect x="65" y="93" width="28" height="5" fill="#D9D9D9"/>
<rect x="100" y="93" width="38" height="5" fill="#D9D9D9"/>
<rect x="77" y="100" width="42" height="5" fill="#D9D9D9"/>
<rect x="22" y="86" width="40" height="5" fill="#D9D9D9"/>
<rect x="69" y="86" width="45" height="5" fill="#D9D9D9"/>
<rect x="69" y="86" width="24" height="5" fill="#D9D9D9"/>
<rect x="22" y="79" width="48" height="5" fill="#D9D9D9"/>
<rect x="121" y="86" width="19" height="5" fill="#D9D9D9"/>
<rect x="77" y="79" width="42" height="5" fill="#D9D9D9"/>
<rect x="121" y="108" width="19" height="5" fill="#D9D9D9"/>
<rect x="69" y="108" width="24" height="5" fill="#D9D9D9"/>
<rect x="69" y="108" width="45" height="5" fill="#D9D9D9"/>
<rect x="22" y="108" width="40" height="5" fill="#D9D9D9"/>
<rect x="53" y="115" width="40" height="5" fill="#D9D9D9"/>
<rect x="100" y="115" width="40" height="5" fill="#D9D9D9"/>
<rect x="22" y="115" width="24" height="5" fill="#D9D9D9"/>
</svg>
