<svg width="32" height="32" viewBox="0 0 32 32" fill="none" xmlns="http://www.w3.org/2000/svg">
<path fill-rule="evenodd" clip-rule="evenodd" d="M14.9834 16.5166C15.2595 16.5166 15.4834 16.7405 15.4834 17.0166V31.5C15.4834 31.7761 15.2595 32 14.9834 32H0.5C0.223858 32 3.5772e-07 31.7761 0 31.5V17.0166C0 16.7405 0.223858 16.5166 0.5 16.5166H14.9834ZM4.74219 25.7578C3.91384 25.7578 3.24232 26.4295 3.24219 27.2578C3.24219 28.0862 3.91376 28.7578 4.74219 28.7578C5.5705 28.7577 6.24219 28.0862 6.24219 27.2578C6.24206 26.4296 5.57042 25.7579 4.74219 25.7578ZM10.7422 25.7578C9.91384 25.7578 9.24232 26.4295 9.24219 27.2578C9.24219 28.0862 9.91376 28.7578 10.7422 28.7578C11.5705 28.7577 12.2422 28.0862 12.2422 27.2578C12.2421 26.4296 11.5704 25.7579 10.7422 25.7578ZM4.74219 19.7578C3.91384 19.7578 3.24232 20.4295 3.24219 21.2578C3.24219 22.0862 3.91376 22.7578 4.74219 22.7578C5.5705 22.7577 6.24219 22.0862 6.24219 21.2578C6.24206 20.4296 5.57042 19.7579 4.74219 19.7578ZM10.7422 19.7578C9.91384 19.7578 9.24232 20.4295 9.24219 21.2578C9.24219 22.0862 9.91376 22.7578 10.7422 22.7578C11.5705 22.7577 12.2422 22.0862 12.2422 21.2578C12.2421 20.4296 11.5704 19.7579 10.7422 19.7578Z" fill="white"/>
<path fill-rule="evenodd" clip-rule="evenodd" d="M32 31.5C32 31.776 31.7759 31.9998 31.5 32H16.5166V17.0166C16.5166 16.7405 16.7405 16.5166 17.0166 16.5166H32V31.5ZM18.2236 31H20.6807L31 20.6807V18.2246L18.2236 31ZM22.0947 31H24.5518L31 24.5518V22.0947L22.0947 31ZM25.9658 31H28.4229L31 28.4229V25.9658L25.9658 31ZM29.8369 31H31V29.8369L29.8369 31ZM17.5166 27.8369V30.293L30.292 17.5166H27.8369L17.5166 27.8369ZM17.5166 23.9658V26.4219L26.4219 17.5166H23.9658L17.5166 23.9658ZM17.5166 20.0947V22.5508L22.5508 17.5166H20.0947L17.5166 20.0947ZM17.5166 18.6797L18.6797 17.5166H17.5166V18.6797Z" fill="white"/>
<path d="M14.9834 0C15.2595 0 15.4834 0.223865 15.4834 0.5V14.9834C15.4834 15.2595 15.2595 15.4844 14.9834 15.4844H0.5C0.223858 15.4844 0 15.2595 0 14.9834V0.5C8.7765e-06 0.223865 0.223863 3.57699e-07 0.5 0H14.9834Z" fill="white"/>
<path fill-rule="evenodd" clip-rule="evenodd" d="M31.5 0C31.7759 0.000246995 32 0.224987 32 0.500977V14.9844C31.9997 15.2601 31.7758 15.4841 31.5 15.4844H17.0166C16.7406 15.4844 16.5169 15.2603 16.5166 14.9844V0.500977C16.5166 0.224834 16.7405 3.58048e-07 17.0166 0H31.5ZM17.5166 14.4844H31V1.00098H17.5166V14.4844Z" fill="white"/>
</svg>
