<svg width="32" height="32" viewBox="0 0 32 32" fill="none" xmlns="http://www.w3.org/2000/svg">
<path d="M4.7087 26.7999C5.27847 26.7999 5.7408 27.2609 5.7408 27.8291C5.74076 28.3972 5.27844 28.8573 4.7087 28.8573C4.13907 28.8571 3.67763 28.3971 3.67759 27.8291C3.67759 27.261 4.13904 26.8 4.7087 26.7999Z" fill="white"/>
<path fill-rule="evenodd" clip-rule="evenodd" d="M9.01406 0.0108438C9.21158 0.051308 9.36709 0.206176 9.40752 0.403192L9.41839 0.504729V9.35424L13.8681 1.66994L13.9274 1.58714C14.0836 1.41142 14.3482 1.36362 14.5601 1.4856L21.8392 5.67623L21.9222 5.73636C22.0728 5.86987 22.1303 6.08195 22.0665 6.27263L22.025 6.36629L17.3756 14.3946L25.4288 9.76039L25.5227 9.718C25.7458 9.64405 25.9985 9.7338 26.1208 9.94473L30.3233 17.2042L30.3649 17.2978C30.4284 17.4885 30.3723 17.7007 30.2215 17.8341L30.1385 17.8942L21.9519 22.6073H31.4938L31.5957 22.6182C31.8263 22.6652 32 22.8691 32 23.113V31.4953L31.9891 31.5968C31.9484 31.7935 31.793 31.9489 31.5957 31.9892L31.4938 32H0.506163C0.26147 32 0.0569858 31.8269 0.009886 31.5968L0 31.4953V0.504729L0.009886 0.403192C0.0570429 0.173142 0.261523 1.06633e-08 0.506163 0H8.91223L9.01406 0.0108438ZM1.01233 30.9905H8.40607V1.00946H1.01233V30.9905ZM9.73277 29.642L9.41839 29.8224V30.9905H15.4479V26.3514L9.73277 29.642ZM16.4602 25.7688V30.9905H23.4713V23.6178H20.1971L16.4602 25.7688ZM24.4837 30.9905H30.9877V23.6178H24.4837V30.9905ZM9.41839 28.1386V28.6562L15.7355 25.0196L13.4796 21.1237L9.41839 28.1386ZM9.41839 26.1197L13.1256 19.7179L9.41839 17.5827V26.1197ZM16.3633 16.1444L14.0648 20.1142L16.6124 24.5148L22.6844 21.0192L18.988 14.6342L16.3633 16.1444ZM19.8639 14.1294L23.5613 20.5145L29.1934 17.2722L25.497 10.8872L19.8639 14.1294ZM9.41839 11.3732V16.4175L13.6318 18.8435L17.1374 12.7897L10.7332 9.10286L9.41839 11.3732ZM11.2394 8.22846L17.6435 11.9153L20.8951 6.29827L14.4919 2.61237L11.2394 8.22846Z" fill="white"/>
</svg>
