<svg width="32" height="32" viewBox="0 0 32 32" fill="none" xmlns="http://www.w3.org/2000/svg">
<path fill-rule="evenodd" clip-rule="evenodd" d="M31.6016 5.29328C31.8291 5.34103 32.001 5.54673 32.001 5.79257V7.6674L31.9902 7.76785C31.9706 7.86703 31.9226 7.95953 31.8506 8.03142L29.54 10.3339L29.4648 10.3956C29.4442 10.4094 29.4218 10.4209 29.3994 10.4314V26.1431L29.3945 26.3719C29.344 27.5144 28.9167 28.6092 28.1787 29.4771L26.1826 31.8243C25.9832 32.0585 25.626 32.0587 25.4268 31.8243L23.0273 29.0026C22.5005 28.3831 22.21 27.5903 22.21 26.7707V10.4413C22.1811 10.4293 22.1533 10.4149 22.127 10.3976L22.0508 10.3369L19.7051 8.03142C19.6074 7.93545 19.5518 7.80267 19.5518 7.66441V5.79257C19.5518 5.51133 19.7756 5.28333 20.0518 5.28333H31.501L31.6016 5.29328ZM23.2227 27.0094C23.2708 27.4978 23.4652 27.9614 23.7832 28.3353L25.8047 30.7134L27.4229 28.8107C28.0526 28.0702 28.3993 27.1227 28.3994 26.1431V25.5305L23.2227 27.0094ZM23.21 23.6537V25.9562L28.3994 24.4732V22.1995L23.21 23.6537ZM23.21 20.3168V22.5974L28.3994 21.1423V18.9104L23.21 20.3168ZM23.21 17.0574V19.2625L28.3994 17.8561V15.6023L23.21 17.0574ZM23.21 16.0002L28.3994 14.5461V10.4911H23.21V16.0002ZM20.5518 7.44858L22.6006 9.46067H28.9863L31.001 7.45157V6.30181H20.5518V7.44858Z" fill="white"/>
<path fill-rule="evenodd" clip-rule="evenodd" d="M20.5996 0.0129298C20.8484 0.0705871 21.0224 0.316604 20.9824 0.585821L20.6914 2.52629L20.6699 2.6168C20.6112 2.78929 20.4643 2.91671 20.2881 2.94999L20.1973 2.95895H17.9355V28.9638L17.9307 29.0315C17.9219 29.0978 17.9005 29.1623 17.8672 29.2205L16.4307 31.7239L16.3916 31.7826C16.1935 32.0398 15.8054 32.0399 15.6074 31.7826L15.5674 31.7239L14.1318 29.2205C14.0984 29.1622 14.0761 29.0979 14.0674 29.0315L14.0635 28.9638V2.95895H11.9062L11.8174 2.95099C11.6437 2.9192 11.4989 2.79529 11.4375 2.62675L11.4141 2.53922L11.0713 0.599746C11.0164 0.287638 11.2521 0.000143641 11.5635 0H20.4883L20.5996 0.0129298ZM15.0635 28.8256L15.999 30.4567L16.9355 28.8256V2.96989H15.0635V28.8256ZM12.3242 1.94047H19.7676L19.9062 1.01847H12.1611L12.3242 1.94047Z" fill="white"/>
<path fill-rule="evenodd" clip-rule="evenodd" d="M6.18848 5.28234C7.82975 5.28234 9.40388 5.94733 10.5645 7.12932C11.7249 8.3113 12.3769 9.91465 12.377 11.5861H9.30176L8.55566 31.9029H3.90039L3.11523 11.5861H0C1.21174e-05 9.91465 0.652091 8.3113 1.8125 7.12932C2.97306 5.94731 4.5472 5.28235 6.18848 5.28234ZM4.82324 29.9028L4.8623 30.8844H7.59277L7.66895 28.8027L4.82324 29.9028ZM4.66895 25.9134L4.78223 28.8286L7.70898 27.6967L7.81543 24.7984L4.66895 25.9134ZM4.51465 21.9131L4.62793 24.8492L7.85547 23.7044L7.96094 20.8459L4.51465 21.9131ZM4.3623 17.9685L4.47363 20.8608L8 19.7697L8.10449 16.9132L4.3623 17.9685ZM4.32129 16.9232L8.14355 15.846L8.2998 11.618H4.11719L4.32129 16.9232ZM6.18848 6.30181C4.81241 6.30182 3.49256 6.85841 2.51953 7.84941C1.78578 8.59681 1.29482 9.54549 1.09766 10.5677H11.2793C11.0821 9.54549 10.5912 8.59681 9.85742 7.84941C8.88439 6.85843 7.56454 6.30181 6.18848 6.30181Z" fill="white"/>
</svg>
