<svg width="30" height="32" viewBox="0 0 30 32" fill="none" xmlns="http://www.w3.org/2000/svg">
<path d="M15.916 20.2666C16.0817 20.2666 16.2158 20.4017 16.2158 20.5674V31.7002C16.2158 31.8659 16.0817 32 15.916 32H13.3164C13.1507 32 13.0166 31.8659 13.0166 31.7002V20.5674C13.0166 20.4017 13.1507 20.2666 13.3164 20.2666H15.916Z" fill="white"/>
<path d="M8.55566 26.6045C8.85347 26.6048 9.09562 26.8467 9.0957 27.1445C9.09516 27.442 8.85319 27.6833 8.55566 27.6836C8.25819 27.6832 8.01617 27.442 8.01562 27.1445C8.01571 26.8467 8.25791 26.6049 8.55566 26.6045Z" fill="white"/>
<path d="M3.17773 21.3662C3.47547 21.3666 3.71769 21.6084 3.71777 21.9062C3.71723 22.2037 3.47519 22.4449 3.17773 22.4453C2.88004 22.4452 2.63824 22.2038 2.6377 21.9062C2.63778 21.6083 2.87976 21.3663 3.17773 21.3662Z" fill="white"/>
<path d="M8.55566 15.9951C8.85352 15.9954 9.0957 16.2372 9.0957 16.5352C9.0951 16.8326 8.85315 17.0739 8.55566 17.0742C8.25823 17.0738 8.01623 16.8325 8.01562 16.5352C8.01562 16.2373 8.25786 15.9955 8.55566 15.9951Z" fill="white"/>
<path d="M3.17773 10.7383C3.47526 10.7387 3.71734 10.9798 3.71777 11.2773C3.71749 11.575 3.47535 11.817 3.17773 11.8174C2.87989 11.8173 2.63798 11.5752 2.6377 11.2773C2.63813 10.9797 2.87998 10.7384 3.17773 10.7383Z" fill="white"/>
<path d="M8.55566 5.38574C8.85352 5.38604 9.09569 5.62786 9.0957 5.92578C9.09516 6.22325 8.85319 6.46454 8.55566 6.46484C8.25806 6.46463 8.01617 6.22331 8.01562 5.92578C8.01564 5.6278 8.25773 5.38596 8.55566 5.38574Z" fill="white"/>
<path fill-rule="evenodd" clip-rule="evenodd" d="M11.2334 2.13379C11.5092 2.13406 11.7333 2.35793 11.7334 2.63379V30.4336C11.7334 30.7095 11.5093 30.9333 11.2334 30.9336H0.5C0.223879 30.9336 3.51974e-05 30.7097 0 30.4336V2.63379C0.00013181 2.35776 0.223939 2.13379 0.5 2.13379H11.2334ZM8.55566 25.5635C7.68328 25.5638 6.97495 26.2712 6.97461 27.1436C6.9749 28.016 7.68324 28.7242 8.55566 28.7246C9.42813 28.7243 10.1355 28.016 10.1357 27.1436C10.1354 26.2711 9.4281 25.5638 8.55566 25.5635ZM3.17773 20.3252C2.30512 20.3253 1.59702 21.0327 1.59668 21.9053C1.59697 22.7779 2.30509 23.4862 3.17773 23.4863C4.05014 23.4859 4.75753 22.7777 4.75781 21.9053C4.75747 21.0329 4.05011 20.3256 3.17773 20.3252ZM8.55566 14.9541C7.68322 14.9545 6.97486 15.6617 6.97461 16.5342C6.97495 17.4066 7.68328 18.1149 8.55566 18.1152C9.4281 18.1149 10.1354 17.4066 10.1357 16.5342C10.1355 15.6617 9.42815 14.9544 8.55566 14.9541ZM3.17773 9.69727C2.30519 9.69738 1.59712 10.4049 1.59668 11.2773C1.59697 12.1499 2.30509 12.8583 3.17773 12.8584C4.05014 12.858 4.75753 12.1498 4.75781 11.2773C4.75737 10.405 4.05004 9.69765 3.17773 9.69727ZM8.55566 4.34473C7.6831 4.34494 6.97488 5.05225 6.97461 5.9248C6.9749 6.79734 7.68311 7.50564 8.55566 7.50586C9.42813 7.50554 10.1355 6.79728 10.1357 5.9248C10.1355 5.05231 9.42814 4.34504 8.55566 4.34473Z" fill="white"/>
<path d="M20.6768 25.5381C20.9745 25.5385 21.2167 25.7803 21.2168 26.0781C21.2161 26.3754 20.9741 26.6168 20.6768 26.6172C20.3793 26.6169 20.1374 26.3755 20.1367 26.0781C20.1368 25.7802 20.3789 25.5384 20.6768 25.5381Z" fill="white"/>
<path d="M26.0547 20.2998C26.3527 20.2999 26.5947 20.5419 26.5947 20.8398C26.594 21.1373 26.3523 21.3788 26.0547 21.3789C25.7573 21.3786 25.5153 21.1372 25.5146 20.8398C25.5147 20.542 25.7569 20.3001 26.0547 20.2998Z" fill="white"/>
<path d="M20.6768 14.9287C20.9744 14.9291 21.2165 15.1701 21.2168 15.4678C21.2163 15.7652 20.9743 16.0074 20.6768 16.0078C20.3792 16.0075 20.1372 15.7653 20.1367 15.4678C20.137 15.17 20.379 14.929 20.6768 14.9287Z" fill="white"/>
<path d="M26.0547 9.67188C26.3525 9.67198 26.5943 9.91324 26.5947 10.2109C26.5943 10.5086 26.3524 10.7509 26.0547 10.751C25.7571 10.7506 25.5151 10.5085 25.5146 10.2109C25.5151 9.91338 25.7571 9.67222 26.0547 9.67188Z" fill="white"/>
<path d="M20.6768 4.31934C20.9745 4.31955 21.2165 4.56063 21.2168 4.8584C21.2164 5.15602 20.9744 5.39823 20.6768 5.39844C20.3791 5.39816 20.1372 5.15598 20.1367 4.8584C20.137 4.56067 20.379 4.31961 20.6768 4.31934Z" fill="white"/>
<path fill-rule="evenodd" clip-rule="evenodd" d="M28.7324 1.06738C29.0085 1.06738 29.2323 1.29135 29.2324 1.56738V29.3672C29.2322 29.6432 29.0085 29.8672 28.7324 29.8672H17.999C17.7232 29.8669 17.4992 29.643 17.499 29.3672V1.56738C17.4992 1.2915 17.7232 1.06763 17.999 1.06738H28.7324ZM20.6768 24.4971C19.8043 24.4974 19.097 25.2047 19.0967 26.0771C19.0971 26.9495 19.8044 27.6579 20.6768 27.6582C21.5491 27.6578 22.2574 26.9495 22.2578 26.0771C22.2575 25.2047 21.5492 24.4974 20.6768 24.4971ZM26.0547 19.2588C25.1823 19.2591 24.4749 19.9665 24.4746 20.8389C24.475 21.7112 25.1823 22.4196 26.0547 22.4199C26.9272 22.4198 27.6353 21.7113 27.6357 20.8389C27.6354 19.9663 26.9273 19.2589 26.0547 19.2588ZM20.6768 13.8877C19.8042 13.888 19.0969 14.5953 19.0967 15.4678C19.0972 16.3401 19.8044 17.0485 20.6768 17.0488C21.549 17.0485 22.2573 16.34 22.2578 15.4678C22.2576 14.5953 21.5492 13.8881 20.6768 13.8877ZM26.0547 8.63086C25.1823 8.63122 24.475 9.33862 24.4746 10.2109C24.475 11.0833 25.1823 11.7916 26.0547 11.792C26.9272 11.7919 27.6353 11.0834 27.6357 10.2109C27.6353 9.33846 26.9272 8.63097 26.0547 8.63086ZM20.6768 3.27832C19.8042 3.27861 19.0969 3.98588 19.0967 4.8584C19.0971 5.73077 19.8044 6.43917 20.6768 6.43945C21.5492 6.43924 22.2574 5.73081 22.2578 4.8584C22.2576 3.98583 21.5493 3.27853 20.6768 3.27832Z" fill="white"/>
<path d="M15.916 18.1338C16.0817 18.1338 16.2157 18.268 16.2158 18.4336V18.9004C16.2158 19.0661 16.0817 19.2002 15.916 19.2002H13.3164C13.1507 19.2002 13.0166 19.0661 13.0166 18.9004V18.4336C13.0167 18.268 13.1508 18.1338 13.3164 18.1338H15.916Z" fill="white"/>
<path d="M15.916 14.9336C16.0816 14.9336 16.2156 15.0679 16.2158 15.2334V16.7666C16.2158 16.9323 16.0817 17.0674 15.916 17.0674H13.3164C13.1507 17.0674 13.0166 16.9323 13.0166 16.7666V15.2334C13.0168 15.0679 13.1508 14.9336 13.3164 14.9336H15.916Z" fill="white"/>
<path d="M15.916 12.8008C16.0817 12.8008 16.2158 12.9349 16.2158 13.1006V13.5674C16.2156 13.7329 16.0816 13.8672 15.916 13.8672H13.3164C13.1508 13.8672 13.0168 13.7329 13.0166 13.5674V13.1006C13.0166 12.9349 13.1507 12.8008 13.3164 12.8008H15.916Z" fill="white"/>
<path d="M15.916 0C16.0817 0 16.2158 0.135096 16.2158 0.300781V11.4336C16.2158 11.5993 16.0817 11.7334 15.916 11.7334H13.3164C13.1507 11.7334 13.0166 11.5993 13.0166 11.4336V0.300781C13.0166 0.135096 13.1507 0 13.3164 0H15.916Z" fill="white"/>
</svg>
