<svg width="32" height="32" viewBox="0 0 32 32" fill="none" xmlns="http://www.w3.org/2000/svg">
<path d="M5.5 0H15V3.5H1L5.5 0Z" fill="white"/>
<path d="M26.5 0H17V3.5H31L26.5 0Z" fill="white"/>
<path d="M32 32H0V5H32V32ZM18.3154 26.7607V28.2607H28.3154V26.7607H18.3154ZM18.4336 22.9053H19.8486V25.9619H21.3486V22.9053H22.7637L20.5986 20.6553L18.4336 22.9053ZM23.8008 22.9053H25.2158V25.9619H26.7158V22.9053H28.1309L25.9658 20.6553L23.8008 22.9053ZM13.2432 9.25C12.6909 9.25 12.2432 9.69772 12.2432 10.25C12.2434 10.8021 12.691 11.25 13.2432 11.25H18.7568C19.309 11.25 19.7566 10.8021 19.7568 10.25C19.7568 9.69772 19.3091 9.25 18.7568 9.25H13.2432Z" fill="white"/>
</svg>
