<svg width="30" height="32" viewBox="0 0 30 32" fill="none" xmlns="http://www.w3.org/2000/svg">
<path d="M29.1718 5.13549C29.5725 4.98333 30 5.28225 30 5.71474V23.2387C30 23.4966 29.8416 23.7272 29.6027 23.8179L8.16452 31.9601C7.76402 32.1118 7.33634 31.812 7.33634 31.3797V13.8557C7.3364 13.5979 7.4949 13.3673 7.73367 13.2765L29.1718 5.13549Z" fill="white"/>
<path d="M25.0142 2.42062C25.3295 2.29719 25.684 2.45511 25.8064 2.77373C25.9283 3.0922 25.772 3.45055 25.457 3.57429L4.8877 11.6439V29.4786C4.8874 29.8202 4.61293 30.0975 4.27494 30.0978C3.93671 30.0978 3.66249 29.8203 3.66219 29.4786V11.6439C3.66219 11.1331 3.9725 10.6741 4.44369 10.489L25.0142 2.42062Z" fill="white"/>
<path d="M21.352 0.0419305C21.6673 -0.0814172 22.0218 0.0765882 22.1443 0.395045C22.2666 0.713659 22.11 1.07174 21.7948 1.1956L1.22552 9.26524V27.1C1.22552 27.4418 0.951054 27.719 0.612758 27.7191C0.274341 27.7191 0 27.4419 0 27.1V9.26524C0.000139933 8.75455 0.310424 8.29534 0.781506 8.11036L21.352 0.0419305Z" fill="white"/>
</svg>
