<svg width="32" height="32" viewBox="0 0 32 32" fill="none" xmlns="http://www.w3.org/2000/svg">
<path d="M5.65918 1.79004H2.53613V3.12891H5.65918V5.1748H3.70996V6.51367H5.65918V8.55957H2.53613V9.89844H5.65918V11.9443H3.70996V13.2832H5.65918V15.3291H2.53613V16.6689H5.65918V18.7148H3.70996V20.0537H5.65918V22.0996H2.53613V23.4385H5.65918V25.4844H3.70996V26.8232H5.65918V28.8691H2.53613V30.208H5.65918V32H0V0H5.65918V1.79004Z" fill="white"/>
<path d="M24.8467 16.4453H15.7559V22.4902H14.7559V15.4453H24.8467V16.4453Z" fill="white"/>
<path fill-rule="evenodd" clip-rule="evenodd" d="M26.0342 2.92676L23.2617 5.79883H29L29.1543 5.80273C30.7391 5.88327 31.9998 7.19401 32 8.79883V27.6396C31.9998 29.2962 30.6565 30.6395 29 30.6396H21.9619V26.7871H8.86523V5.79883H20.2402L24.5234 1.36133L26.0342 2.92676ZM22.9619 29.6396H29C30.1042 29.6395 30.9998 28.7439 31 27.6396V26.7871H22.9619V29.6396ZM9.86523 25.7871H21.9619V25.7725H31V8.79883C30.9998 7.69454 30.1043 6.79906 29 6.79883H22.2969L17.2197 12.0586L15.0215 13.0625C14.8433 13.1433 14.6621 12.9551 14.7402 12.7705L15.709 10.4932L19.2754 6.79883H9.86523V25.7871Z" fill="white"/>
</svg>
