<svg width="160" height="160" viewBox="0 0 160 160" fill="none" xmlns="http://www.w3.org/2000/svg">
<rect width="160" height="160" rx="20" fill="white"/>
<rect x="11.15" y="27.15" width="34.7" height="11.7" fill="white" stroke="black" stroke-width="0.3"/>
<path d="M14 34H31V36H14V34Z" fill="#D9D9D9"/>
<rect x="45.15" y="27.15" width="33.7" height="11.7" fill="white" stroke="black" stroke-width="0.3"/>
<rect x="48" y="34" width="28" height="2" fill="#D9D9D9"/>
<rect x="48" y="30" width="16" height="2" fill="#D9D9D9"/>
<rect x="66" y="30" width="7" height="2" fill="#D9D9D9"/>
<rect x="48" y="30" width="16" height="2" fill="#D9D9D9"/>
<rect x="66" y="30" width="7" height="2" fill="#D9D9D9"/>
<rect x="79.15" y="27.15" width="34.7" height="11.7" fill="white" stroke="black" stroke-width="0.3"/>
<rect x="14" y="30" width="20" height="2" fill="#D9D9D9"/>
<rect x="82" y="30" width="24" height="2" fill="#D9D9D9"/>
<rect x="114.15" y="27.15" width="33.7" height="11.7" fill="white" stroke="black" stroke-width="0.3"/>
<rect x="117" y="34" width="16" height="2" fill="#D9D9D9"/>
<rect x="135" y="34" width="7" height="2" fill="#D9D9D9"/>
<rect x="117" y="30" width="21" height="2" fill="#D9D9D9"/>
</svg>
