<svg width="32" height="32" viewBox="0 0 32 32" fill="none" xmlns="http://www.w3.org/2000/svg">
<path fill-rule="evenodd" clip-rule="evenodd" d="M31.9385 31.0049C31.9384 31.5571 31.4907 32.0049 30.9385 32.0049H8.22852V8.29492H31.9385V31.0049ZM9.22852 31.0049H15.543V24.8506H9.22852V31.0049ZM16.543 31.0049H23.7695V24.8506H16.543V31.0049ZM24.7695 31.0049H30.9385V24.8506H24.7695V31.0049ZM9.22852 23.8506H15.543V16.625H9.22852V23.8506ZM16.543 23.8506H23.7695V16.625H16.543V23.8506ZM24.7695 23.8506H30.9385V16.625H24.7695V23.8506ZM9.22852 15.625H15.543V9.29492H9.22852V15.625ZM16.543 15.625H23.7695V9.29492H16.543V15.625ZM24.7695 15.625H30.9385V9.29492H24.7695V15.625Z" fill="white"/>
<path d="M7.31445 32H0.5C0.223858 32 1.72038e-07 31.7761 0 31.5V24.7715H7.31445V32Z" fill="white"/>
<path d="M7.31445 23.8574H0V16.543H7.31445V23.8574Z" fill="white"/>
<path d="M7.31445 15.6289H0V8.31445H7.31445V15.6289Z" fill="white"/>
<path d="M7.31445 7.31445H0V0.5C1.2041e-07 0.223858 0.223858 2.60245e-09 0.5 0H7.31445V7.31445Z" fill="white"/>
<path d="M15.543 7.31445H8.22852V0H15.543V7.31445Z" fill="white"/>
<path d="M23.7715 7.31445H16.457V0H23.7715V7.31445Z" fill="white"/>
<path d="M31.5 0C31.7761 0 32 0.223858 32 0.5V7.31445H24.6855V0H31.5Z" fill="white"/>
</svg>
