<svg width="145" height="40" viewBox="0 0 145 40" fill="none" xmlns="http://www.w3.org/2000/svg">
<path fill-rule="evenodd" clip-rule="evenodd" d="M123.476 1.79655V31.8589H128.985L131.979 31.26V15.8097L135.692 11.8573V31.8589H141.202L144.196 30.9007V0.479081L141.082 0L131.979 9.58162V2.51518L128.626 1.79655H123.476ZM0.935547 36.5718V34.0566H89.9819L90.9355 36.5718H0.935547ZM144.436 34.0566H123.476L123.116 36.5718H144.436V34.0566ZM113.217 0.479081L116.93 0.958162L116.81 31.0205H121.002C121.29 36.0988 119.206 39.125 118.128 40.0033H109.265V39.7637C111.469 38.9972 112.738 36.0908 113.098 34.7334H101.48C102.342 36.7455 104.634 38.9254 105.672 39.7637L102.917 40.0033H97.4077C93.8624 37.4162 93.056 32.9368 93.0959 31.0205H97.767L97.4077 18.6842C97.9826 7.85693 108.187 2.0361 113.217 0.479081ZM80.8794 31.8589H87.4667L89.8621 31.3798V1.07793L87.2272 0.479081H80.8794V22.1575H74.8908V1.07793L72.0163 0.479081H65.3092V22.1575H56.2067C56.9253 22.6366 58.626 23.9301 59.68 25.2715H65.3092V31.8589H72.3757L74.8908 31.6194V25.2715H80.8794V31.8589ZM45.4273 25.2715V31.8589H52.2542L55.1287 31.6194V7.30599C55.1287 6.58737 54.8466 5.6292 54.7694 5.38966C52.4938 -1.67678 30.4561 -0.838392 30.4561 5.38966V21.7982H20.9942C22.9105 22.8522 24.2679 24.5529 24.7071 25.2715H30.2165V31.8589H37.1632L39.6784 31.6194V25.2715H45.4273ZM25.6652 31.6194C13.2091 25.6308 -3.31917 14.3724 22.0721 1.1977C21.9124 1.07793 21.09 0.838392 19.0779 0.838392H9.73579C0.633249 6.4676 -8.10998 19.1632 13.3289 31.8589H22.7908L25.6652 31.6194ZM39.1993 22.0377H45.3076V5.9885C44.9483 4.31172 41.1156 2.3954 39.1993 5.74896V22.0377ZM109.025 12.0968V31.1403H105.552C105.233 25.7905 105.48 14.4922 109.025 12.0968Z" fill="white"/>
</svg>
